<?xml version="1.0" standalone="no"?>
<!DOCTYPE svg PUBLIC "-//W3C//DTD SVG 20010904//EN"
 "http://www.w3.org/TR/2001/REC-SVG-20010904/DTD/svg10.dtd">
<svg version="1.0" xmlns="http://www.w3.org/2000/svg"
 width="700.000000pt" height="700.000000pt" viewBox="0 0 700.000000 700.000000"
 preserveAspectRatio="xMidYMid meet">
<metadata>
Created by potrace 1.14, written by Peter Selinger 2001-2017
</metadata>
<g transform="translate(0.000000,700.000000) scale(0.100000,-0.100000)"
fill="#000000" stroke="none">
<path d="M2924 5243 l-401 -3 -186 -613 c-103 -336 -187 -615 -187 -619 0 -5
663 -9 1473 -10 l1472 -3 3 -1187 2 -1188 660 0 660 0 0 1184 0 1185 -662 630
-663 630 -885 -2 c-487 -1 -1065 -3 -1286 -4z"/>
<path d="M1236 4614 l-656 -625 0 -1185 0 -1184 660 0 660 0 0 1810 c0 996 -2
1810 -4 1810 -2 0 -299 -282 -660 -626z"/>
</g>
</svg>
