<svg width="375" height="480" viewBox="0 0 375 480" fill="none" xmlns="http://www.w3.org/2000/svg">
<g clip-path="url(#clip0_1_25)">
<rect width="375" height="480" fill="white"/>
<g filter="url(#filter0_f_1_25)">
<path d="M144.041 140.285C43.7006 240.625 -64.9161 304.205 -112.834 256.286C-160.752 208.368 -188.948 88.0686 -88.6075 -12.2718C11.733 -112.612 191.042 -176.079 238.96 -128.161C286.878 -80.2427 244.381 39.9446 144.041 140.285Z" fill="url(#paint0_linear_1_25)"/>
</g>
<g filter="url(#filter1_f_1_25)">
<path d="M165.29 225.606C105.171 121.477 86.1315 13.3384 155.386 -26.6456C224.64 -66.6296 359.539 -80.7926 419.658 23.3362C479.777 127.465 468.795 301.766 399.541 341.75C330.287 381.734 225.409 329.734 165.29 225.606Z" fill="url(#paint1_linear_1_25)"/>
</g>
<g filter="url(#filter2_f_1_25)">
<path d="M225.04 276.906C295.593 179.543 378.527 112.23 426.183 146.764C473.839 181.297 515.3 279.491 444.747 376.853C374.194 474.215 231.238 550.258 183.582 515.724C135.926 481.19 154.487 374.268 225.04 276.906Z" fill="url(#paint2_linear_1_25)"/>
</g>
<g filter="url(#filter3_f_1_25)">
<ellipse cx="252.413" cy="213.517" rx="119.994" ry="158.326" transform="rotate(-4.64158 252.413 213.517)" fill="url(#paint3_linear_1_25)"/>
</g>
<g filter="url(#filter4_f_1_25)">
<path d="M209.558 246.031C238.553 362.72 233.01 470.405 168.276 486.49C103.543 502.575 -10.0674 473.942 -39.0617 357.252C-68.0559 240.563 -24.8853 79.955 39.8486 63.8703C104.582 47.7856 180.564 129.342 209.558 246.031Z" fill="url(#paint4_linear_1_25)"/>
</g>
<g filter="url(#filter5_f_1_25)">
<ellipse cx="100.151" cy="105.462" rx="113.5" ry="157" transform="rotate(-12.2162 100.151 105.462)" fill="url(#paint5_linear_1_25)"/>
</g>
<g style="mix-blend-mode:screen" opacity="0.9" filter="url(#filter6_f_1_25)">
<path d="M264.655 251.575C275.81 367.143 214.478 517.888 182.459 520.978C150.44 524.069 171.029 382.445 159.874 266.877C148.719 151.309 95.5788 44.6111 127.597 41.5206C159.616 38.4301 253.5 136.008 264.655 251.575Z" fill="url(#paint6_linear_1_25)"/>
</g>
<g filter="url(#filter7_f_1_25)">
<path d="M40 100.179C40 13.5533 133.641 -94 173.521 -94C213.401 -94 171.125 9.70076 171.125 96.3264C171.125 182.952 223.993 266 184.113 266C144.233 266 40 186.805 40 100.179Z" fill="url(#paint7_linear_1_25)"/>
</g>
<g filter="url(#filter8_f_1_25)">
<path d="M175.845 36.5843C185.782 -29.9473 190.13 -80.6467 175.845 -143.075C147.994 -264.788 48.2521 -263.827 19.581 -143.075C-3.08005 -47.635 30.0024 29.0733 54.082 122.752C64.7071 164.087 67.4623 198.533 86.0844 221.629C127.755 273.312 160.725 137.814 175.845 36.5843Z" fill="#4891FF"/>
</g>
<g filter="url(#filter9_f_1_25)">
<ellipse cx="188" cy="472" rx="240" ry="145" fill="white"/>
</g>
</g>
<g style="mix-blend-mode:soft-light">
<rect width="375" height="480" fill="#4D4D4D"/>
</g>
<defs>
<filter id="filter0_f_1_25" x="-173.328" y="-161.457" width="448.988" height="451.025" filterUnits="userSpaceOnUse" color-interpolation-filters="sRGB">
<feFlood flood-opacity="0" result="BackgroundImageFix"/>
<feBlend mode="normal" in="SourceGraphic" in2="BackgroundImageFix" result="shape"/>
<feGaussianBlur stdDeviation="8.5" result="effect1_foregroundBlur_1_25"/>
</filter>
<filter id="filter1_f_1_25" x="44.224" y="-123.555" width="481.588" height="545.782" filterUnits="userSpaceOnUse" color-interpolation-filters="sRGB">
<feFlood flood-opacity="0" result="BackgroundImageFix"/>
<feBlend mode="normal" in="SourceGraphic" in2="BackgroundImageFix" result="shape"/>
<feGaussianBlur stdDeviation="33.5" result="effect1_foregroundBlur_1_25"/>
</filter>
<filter id="filter2_f_1_25" x="140.154" y="120.596" width="359.31" height="420.594" filterUnits="userSpaceOnUse" color-interpolation-filters="sRGB">
<feFlood flood-opacity="0" result="BackgroundImageFix"/>
<feBlend mode="normal" in="SourceGraphic" in2="BackgroundImageFix" result="shape"/>
<feGaussianBlur stdDeviation="8.5" result="effect1_foregroundBlur_1_25"/>
</filter>
<filter id="filter3_f_1_25" x="129.118" y="52.4067" width="246.59" height="322.221" filterUnits="userSpaceOnUse" color-interpolation-filters="sRGB">
<feFlood flood-opacity="0" result="BackgroundImageFix"/>
<feBlend mode="normal" in="SourceGraphic" in2="BackgroundImageFix" result="shape"/>
<feGaussianBlur stdDeviation="1.5" result="effect1_foregroundBlur_1_25"/>
</filter>
<filter id="filter4_f_1_25" x="-65.2595" y="44.8467" width="308.568" height="462.759" filterUnits="userSpaceOnUse" color-interpolation-filters="sRGB">
<feFlood flood-opacity="0" result="BackgroundImageFix"/>
<feBlend mode="normal" in="SourceGraphic" in2="BackgroundImageFix" result="shape"/>
<feGaussianBlur stdDeviation="8.5" result="effect1_foregroundBlur_1_25"/>
</filter>
<filter id="filter5_f_1_25" x="-16.677" y="-50.874" width="233.656" height="312.671" filterUnits="userSpaceOnUse" color-interpolation-filters="sRGB">
<feFlood flood-opacity="0" result="BackgroundImageFix"/>
<feBlend mode="normal" in="SourceGraphic" in2="BackgroundImageFix" result="shape"/>
<feGaussianBlur stdDeviation="0.5" result="effect1_foregroundBlur_1_25"/>
</filter>
<filter id="filter6_f_1_25" x="79.47" y="3.44922" width="224.523" height="555.579" filterUnits="userSpaceOnUse" color-interpolation-filters="sRGB">
<feFlood flood-opacity="0" result="BackgroundImageFix"/>
<feBlend mode="normal" in="SourceGraphic" in2="BackgroundImageFix" result="shape"/>
<feGaussianBlur stdDeviation="19" result="effect1_foregroundBlur_1_25"/>
</filter>
<filter id="filter7_f_1_25" x="-45" y="-179" width="329" height="530" filterUnits="userSpaceOnUse" color-interpolation-filters="sRGB">
<feFlood flood-opacity="0" result="BackgroundImageFix"/>
<feBlend mode="normal" in="SourceGraphic" in2="BackgroundImageFix" result="shape"/>
<feGaussianBlur stdDeviation="42.5" result="effect1_foregroundBlur_1_25"/>
</filter>
<filter id="filter8_f_1_25" x="-164" y="-410" width="525" height="819" filterUnits="userSpaceOnUse" color-interpolation-filters="sRGB">
<feFlood flood-opacity="0" result="BackgroundImageFix"/>
<feBlend mode="normal" in="SourceGraphic" in2="BackgroundImageFix" result="shape"/>
<feGaussianBlur stdDeviation="88" result="effect1_foregroundBlur_1_25"/>
</filter>
<filter id="filter9_f_1_25" x="-149" y="230" width="674" height="484" filterUnits="userSpaceOnUse" color-interpolation-filters="sRGB">
<feFlood flood-opacity="0" result="BackgroundImageFix"/>
<feBlend mode="normal" in="SourceGraphic" in2="BackgroundImageFix" result="shape"/>
<feGaussianBlur stdDeviation="48.5" result="effect1_foregroundBlur_1_25"/>
</filter>
<linearGradient id="paint0_linear_1_25" x1="141.5" y1="-180" x2="-168.47" y2="245.545" gradientUnits="userSpaceOnUse">
<stop stop-color="#3D61EF"/>
<stop offset="0.123756" stop-color="#2D91FF"/>
<stop offset="0.44805" stop-color="#5CACFD"/>
<stop offset="1" stop-color="#466FE3"/>
</linearGradient>
<linearGradient id="paint1_linear_1_25" x1="216.434" y1="52.4048" x2="380.564" y2="349.302" gradientUnits="userSpaceOnUse">
<stop offset="0.0136249" stop-color="#F8965F"/>
<stop offset="0.328125" stop-color="#F59172"/>
<stop offset="0.739583" stop-color="#F9B38B"/>
<stop offset="1" stop-color="#FEE0E1"/>
</linearGradient>
<linearGradient id="paint2_linear_1_25" x1="376.054" y1="232.678" x2="254.273" y2="515.378" gradientUnits="userSpaceOnUse">
<stop offset="0.0136249" stop-color="#F39788"/>
<stop offset="0.327168" stop-color="#FAADA7"/>
<stop offset="0.664917" stop-color="#FA9D90"/>
<stop offset="1" stop-color="#FBB1AC"/>
</linearGradient>
<linearGradient id="paint3_linear_1_25" x1="317.553" y1="80.4316" x2="229.904" y2="186.441" gradientUnits="userSpaceOnUse">
<stop stop-color="#FF5C00"/>
<stop offset="0.296875" stop-color="#FF745F"/>
<stop offset="1" stop-color="#F9AFA3" stop-opacity="0"/>
</linearGradient>
<linearGradient id="paint4_linear_1_25" x1="75.578" y1="234.085" x2="134.502" y2="522.584" gradientUnits="userSpaceOnUse">
<stop stop-color="#3980ED"/>
<stop offset="0.241579" stop-color="#59A7FB"/>
<stop offset="0.44805" stop-color="#6BAAFB"/>
<stop offset="0.739583" stop-color="#9BB4FB"/>
<stop offset="1" stop-color="white"/>
</linearGradient>
<linearGradient id="paint5_linear_1_25" x1="167.518" y1="145.665" x2="54.8259" y2="214.614" gradientUnits="userSpaceOnUse">
<stop stop-color="#73A3E9" stop-opacity="0"/>
<stop offset="0.396185" stop-color="#A0C2F7" stop-opacity="0.63"/>
<stop offset="1" stop-color="#CDC9FE"/>
</linearGradient>
<linearGradient id="paint6_linear_1_25" x1="72" y1="159" x2="206.861" y2="75.2154" gradientUnits="userSpaceOnUse">
<stop stop-color="#82A9F7"/>
<stop offset="0.723958" stop-color="#FF4C42"/>
</linearGradient>
<linearGradient id="paint7_linear_1_25" x1="85.4208" y1="145.511" x2="218.74" y2="132.394" gradientUnits="userSpaceOnUse">
<stop stop-color="#B4CCFF"/>
<stop offset="0.380208" stop-color="#BFD9FF"/>
<stop offset="0.640625" stop-color="#DCD3F0"/>
<stop offset="1" stop-color="#FF9683"/>
</linearGradient>
<clipPath id="clip0_1_25">
<rect width="375" height="480" fill="white"/>
</clipPath>
</defs>
</svg>
