<svg width="1440" height="900" viewBox="0 0 1440 900" fill="none" xmlns="http://www.w3.org/2000/svg">
<g clip-path="url(#clip0_11504_3366)">
<mask id="mask0_11504_3366" style="mask-type:alpha" maskUnits="userSpaceOnUse" x="643" y="-83" width="765" height="726">
<path d="M874.08 537.266C693.936 402.803 583.927 227.721 678.759 100.671C773.59 -26.3786 1003.21 -161.525 1183.35 -27.0623C1363.5 107.4 1466.8 423.638 1371.97 550.688C1277.14 677.738 1054.22 671.728 874.08 537.266Z" fill="url(#paint0_linear_11504_3366)"/>
</mask>
<g mask="url(#mask0_11504_3366)">
<g filter="url(#filter0_f_11504_3366)">
<path d="M1003.27 123.437C838.012 288.694 659.123 393.407 580.203 314.487C501.284 235.568 454.847 37.4375 620.104 -127.82C785.362 -293.078 1080.68 -397.606 1159.6 -318.686C1238.52 -239.766 1168.53 -41.8212 1003.27 123.437Z" fill="url(#paint1_linear_11504_3366)"/>
</g>
<g filter="url(#filter1_f_11504_3366)">
<path d="M1038.27 263.958C939.253 92.4607 907.895 -85.6404 1021.95 -151.493C1136.01 -217.345 1358.19 -240.671 1457.2 -69.1744C1556.22 102.323 1538.13 389.391 1424.07 455.244C1310.01 521.096 1137.28 435.455 1038.27 263.958Z" fill="url(#paint2_linear_11504_3366)"/>
</g>
<g filter="url(#filter2_f_11504_3366)">
<path d="M1136.67 348.446C1252.87 188.094 1389.46 77.2308 1467.95 134.107C1546.44 190.983 1614.72 352.705 1498.52 513.058C1382.33 673.41 1146.88 798.649 1068.39 741.773C989.905 684.897 1020.48 508.799 1136.67 348.446Z" fill="url(#paint3_linear_11504_3366)"/>
</g>
<g filter="url(#filter3_f_11504_3366)">
<ellipse cx="1181.76" cy="244.048" rx="197.627" ry="260.758" transform="rotate(-4.64158 1181.76 244.048)" fill="url(#paint4_linear_11504_3366)"/>
</g>
<g filter="url(#filter4_f_11504_3366)">
<path d="M1111.18 297.597C1158.93 489.781 1149.8 667.135 1043.19 693.626C936.57 720.117 749.458 672.959 701.706 480.775C653.953 288.592 725.054 24.0745 831.668 -2.4165C938.283 -28.9075 1063.42 105.413 1111.18 297.597Z" fill="url(#paint5_linear_11504_3366)"/>
</g>
<g filter="url(#filter5_f_11504_3366)">
<ellipse cx="930.985" cy="66.0833" rx="186.931" ry="258.574" transform="rotate(-12.2162 930.985 66.0833)" fill="url(#paint6_linear_11504_3366)"/>
</g>
<g style="mix-blend-mode:screen" opacity="0.9" filter="url(#filter6_f_11504_3366)">
<path d="M1270.49 300.11C1288.87 490.447 1147.47 742.616 1077.53 749.367C1007.6 756.117 1059.74 521.106 1041.37 330.769C1023 140.432 912.675 -33.0949 982.609 -39.845C1052.54 -46.5952 1252.12 109.773 1270.49 300.11Z" fill="url(#paint7_linear_11504_3366)"/>
</g>
<g filter="url(#filter7_f_11504_3366)">
<path d="M831.917 57.3831C831.917 -85.2869 986.141 -262.424 1051.82 -262.424C1117.5 -262.424 1047.88 -91.632 1047.88 51.038C1047.88 193.708 1134.95 330.485 1069.27 330.485C1003.59 330.485 831.917 200.053 831.917 57.3831Z" fill="url(#paint8_linear_11504_3366)"/>
</g>
<g style="mix-blend-mode:soft-light">
<rect x="379" y="-347" width="1140.05" height="1101.92" fill="#4D4D4D"/>
</g>
</g>
</g>
<defs>
<filter id="filter0_f_11504_3366" x="491.571" y="-362.526" width="717.474" height="720.828" filterUnits="userSpaceOnUse" color-interpolation-filters="sRGB">
<feFlood flood-opacity="0" result="BackgroundImageFix"/>
<feBlend mode="normal" in="SourceGraphic" in2="BackgroundImageFix" result="shape"/>
<feGaussianBlur stdDeviation="8.5" result="effect1_foregroundBlur_11504_3366"/>
</filter>
<filter id="filter1_f_11504_3366" x="882.222" y="-267.753" width="706.468" height="812.193" filterUnits="userSpaceOnUse" color-interpolation-filters="sRGB">
<feFlood flood-opacity="0" result="BackgroundImageFix"/>
<feBlend mode="normal" in="SourceGraphic" in2="BackgroundImageFix" result="shape"/>
<feGaussianBlur stdDeviation="33.5" result="effect1_foregroundBlur_11504_3366"/>
</filter>
<filter id="filter2_f_11504_3366" x="1007.87" y="102.008" width="569.777" height="670.708" filterUnits="userSpaceOnUse" color-interpolation-filters="sRGB">
<feFlood flood-opacity="0" result="BackgroundImageFix"/>
<feBlend mode="normal" in="SourceGraphic" in2="BackgroundImageFix" result="shape"/>
<feGaussianBlur stdDeviation="8.5" result="effect1_foregroundBlur_11504_3366"/>
</filter>
<filter id="filter3_f_11504_3366" x="980.633" y="-19.3555" width="402.245" height="526.806" filterUnits="userSpaceOnUse" color-interpolation-filters="sRGB">
<feFlood flood-opacity="0" result="BackgroundImageFix"/>
<feBlend mode="normal" in="SourceGraphic" in2="BackgroundImageFix" result="shape"/>
<feGaussianBlur stdDeviation="1.5" result="effect1_foregroundBlur_11504_3366"/>
</filter>
<filter id="filter4_f_11504_3366" x="669.557" y="-22.7494" width="486.207" height="740.153" filterUnits="userSpaceOnUse" color-interpolation-filters="sRGB">
<feFlood flood-opacity="0" result="BackgroundImageFix"/>
<feBlend mode="normal" in="SourceGraphic" in2="BackgroundImageFix" result="shape"/>
<feGaussianBlur stdDeviation="8.5" result="effect1_foregroundBlur_11504_3366"/>
</filter>
<filter id="filter5_f_11504_3366" x="739.22" y="-190.75" width="383.531" height="513.666" filterUnits="userSpaceOnUse" color-interpolation-filters="sRGB">
<feFlood flood-opacity="0" result="BackgroundImageFix"/>
<feBlend mode="normal" in="SourceGraphic" in2="BackgroundImageFix" result="shape"/>
<feGaussianBlur stdDeviation="0.5" result="effect1_foregroundBlur_11504_3366"/>
</filter>
<filter id="filter6_f_11504_3366" x="892.636" y="-107.056" width="446.489" height="923.564" filterUnits="userSpaceOnUse" color-interpolation-filters="sRGB">
<feFlood flood-opacity="0" result="BackgroundImageFix"/>
<feBlend mode="normal" in="SourceGraphic" in2="BackgroundImageFix" result="shape"/>
<feGaussianBlur stdDeviation="33.5" result="effect1_foregroundBlur_11504_3366"/>
</filter>
<filter id="filter7_f_11504_3366" x="746.917" y="-347.424" width="431.868" height="762.91" filterUnits="userSpaceOnUse" color-interpolation-filters="sRGB">
<feFlood flood-opacity="0" result="BackgroundImageFix"/>
<feBlend mode="normal" in="SourceGraphic" in2="BackgroundImageFix" result="shape"/>
<feGaussianBlur stdDeviation="42.5" result="effect1_foregroundBlur_11504_3366"/>
</filter>
<linearGradient id="paint0_linear_11504_3366" x1="842.884" y1="190.165" x2="1344.43" y2="578.406" gradientUnits="userSpaceOnUse">
<stop offset="0.0136249" stop-color="#F8965F"/>
<stop offset="0.328125" stop-color="#F59172"/>
<stop offset="0.739583" stop-color="#F9B38B"/>
<stop offset="1" stop-color="#FEE0E1"/>
</linearGradient>
<linearGradient id="paint1_linear_11504_3366" x1="999.085" y1="-404.064" x2="488.573" y2="296.797" gradientUnits="userSpaceOnUse">
<stop stop-color="#3D61EF"/>
<stop offset="0.123756" stop-color="#2D91FF"/>
<stop offset="0.44805" stop-color="#5CACFD"/>
<stop offset="1" stop-color="#466FE3"/>
</linearGradient>
<linearGradient id="paint2_linear_11504_3366" x1="1122.5" y1="-21.2993" x2="1392.82" y2="467.682" gradientUnits="userSpaceOnUse">
<stop offset="0.0136249" stop-color="#F8965F"/>
<stop offset="0.328125" stop-color="#F59172"/>
<stop offset="0.739583" stop-color="#F9B38B"/>
<stop offset="1" stop-color="#FEE0E1"/>
</linearGradient>
<linearGradient id="paint3_linear_11504_3366" x1="1385.39" y1="275.605" x2="1184.82" y2="741.204" gradientUnits="userSpaceOnUse">
<stop offset="0.0136249" stop-color="#F39788"/>
<stop offset="0.327168" stop-color="#FAADA7"/>
<stop offset="0.664917" stop-color="#FA9D90"/>
<stop offset="1" stop-color="#FE8078"/>
</linearGradient>
<linearGradient id="paint4_linear_11504_3366" x1="1289.04" y1="24.8596" x2="1144.68" y2="199.454" gradientUnits="userSpaceOnUse">
<stop stop-color="#FF5C00"/>
<stop offset="0.296875" stop-color="#FF745F"/>
<stop offset="1" stop-color="#F9AFA3" stop-opacity="0"/>
</linearGradient>
<linearGradient id="paint5_linear_11504_3366" x1="890.514" y1="277.923" x2="987.559" y2="753.071" gradientUnits="userSpaceOnUse">
<stop stop-color="#3980ED"/>
<stop offset="0.241579" stop-color="#59A7FB"/>
<stop offset="0.44805" stop-color="#6BAAFB"/>
<stop offset="0.739583" stop-color="#9BB4FB"/>
<stop offset="1" stop-color="white"/>
</linearGradient>
<linearGradient id="paint6_linear_11504_3366" x1="1041.94" y1="132.298" x2="856.336" y2="245.855" gradientUnits="userSpaceOnUse">
<stop stop-color="#73A3E9" stop-opacity="0"/>
<stop offset="0.396185" stop-color="#A0C2F7" stop-opacity="0.63"/>
<stop offset="1" stop-color="#CDC9FE"/>
</linearGradient>
<linearGradient id="paint7_linear_11504_3366" x1="855.415" y1="157.079" x2="1084.48" y2="-106.958" gradientUnits="userSpaceOnUse">
<stop stop-color="#82A9F7"/>
<stop offset="1" stop-color="#FF4C42"/>
</linearGradient>
<linearGradient id="paint8_linear_11504_3366" x1="906.724" y1="132.044" x2="1126.3" y2="110.44" gradientUnits="userSpaceOnUse">
<stop stop-color="#B4CCFF"/>
<stop offset="0.380208" stop-color="#BFD9FF"/>
<stop offset="0.640625" stop-color="#DCD3F0"/>
<stop offset="1" stop-color="#FF9683"/>
</linearGradient>
<clipPath id="clip0_11504_3366">
<rect width="1440" height="900" fill="white"/>
</clipPath>
</defs>
</svg>
