<svg width="165" height="49" viewBox="0 0 165 49" fill="none" xmlns="http://www.w3.org/2000/svg">
<path d="M35.8207 11.0179H12.5742V20.1187H35.8207V11.0179Z" fill="url(#paint0_linear_1085_27903)"/>
<path d="M3 37.4067V20.1366L12.5752 11V37.3887H3V37.4067Z" fill="url(#paint1_linear_1085_27903)"/>
<path d="M45.4163 37.4066V20.1366L35.8057 10.9999V37.3887H45.4163V37.4066Z" fill="url(#paint2_linear_1085_27903)"/>
<path d="M55.0264 20.1192H71.7298V37.3892H66.9245V24.6158H59.8317V37.3892H55.0264V20.1192Z" fill="black"/>
<path d="M88.095 20.1197H92.9003V37.3897H88.095V34.8995C87.4566 35.8311 86.6055 36.5477 85.6302 37.0672C84.655 37.5688 83.5556 37.8376 82.4385 37.8197C77.7218 37.8197 74.2109 34.1113 74.2109 28.7726C74.2109 23.434 77.6509 19.636 82.5449 19.636C84.7436 19.636 86.9247 20.6034 88.095 22.377V20.1197ZM87.9354 28.7905C87.9354 28.1993 87.829 27.6081 87.6162 27.0528C87.4034 26.4974 87.0665 25.9958 86.6587 25.5837C86.2509 25.1717 85.7366 24.8134 85.2047 24.5984C84.655 24.3476 84.0698 24.2401 83.4847 24.2401C82.3144 24.276 81.1973 24.7955 80.3816 25.6375C79.566 26.4974 79.1227 27.644 79.1227 28.8263C79.1227 30.0087 79.5837 31.1553 80.4171 31.9973C81.2505 32.8572 82.3676 33.3409 83.5379 33.3588C84.7082 33.3409 85.843 32.8572 86.6764 31.9973C87.4744 31.1195 87.9354 29.9729 87.9354 28.7905Z" fill="black"/>
<path d="M107.282 37.4068L103.487 31.1186H100.845V37.4068H96.1992V20.1367H100.845V26.9981H103.327L107.264 20.1546H112.548L107.441 28.6642L113.151 37.3888H107.282V37.4068Z" fill="black"/>
<path d="M130.669 30.3305H117.813C118.31 32.3549 119.959 33.5552 122.193 33.5552C123.044 33.5552 123.878 33.376 124.658 33.0177C125.438 32.6594 126.112 32.1578 126.679 31.5129L129.445 34.3614C127.832 36.547 124.871 37.8369 121.874 37.8369C116.59 37.8369 112.76 34.0926 112.76 28.7898C112.76 23.1824 116.98 19.689 121.839 19.689C126.697 19.689 130.74 23.2004 130.74 28.4853C130.775 28.969 130.74 29.5781 130.669 30.3305ZM125.952 27.1954C125.793 25.171 124.161 23.8632 121.998 23.8632C120.012 23.8632 118.328 24.8485 117.831 27.1954H125.952Z" fill="black"/>
<path d="M147.266 20.1192V24.6517H141.964V37.425H137.141V24.6517H131.839V20.1371H147.266V20.1192Z" fill="black"/>
<path d="M159.906 19.629L158.894 17.8424L157.901 19.629H156.706L158.251 16.9297L156.688 14.4246H157.938L158.95 16.0946L159.906 14.4246H161.101L159.557 17.0074L161.138 19.629H159.906Z" fill="black"/>
<path d="M164.999 17.8613C164.999 19.0071 164.19 19.7256 163.105 19.7256C162.167 19.7256 161.376 19.1819 161.284 17.9779H162.296C162.369 18.5022 162.755 18.7158 163.197 18.7158C163.73 18.7158 163.969 18.3274 163.969 17.8419C163.969 17.337 163.602 17.0069 163.105 17.0069C162.682 17.0069 162.424 17.2205 162.296 17.4341H161.321L161.652 14.4241H164.852L164.742 15.4339H162.443L162.351 16.4243C162.351 16.4243 162.59 16.133 163.326 16.133C164.227 16.133 164.999 16.7544 164.999 17.8613Z" fill="black"/>
<path d="M161.414 13.7829C160.862 11.5496 159.152 9.97662 155.565 9.97662H151.243L151.832 14.1712C152.273 17.9581 153.634 19.1621 156.062 19.6087C156.08 19.6087 156.154 19.6281 156.154 19.531C156.154 19.4922 156.135 19.4728 156.099 19.4534C154.462 18.7348 154.278 16.3462 153.928 13.9382L153.652 12.0351H156.117C158.398 12.0351 160.145 11.9963 161.267 13.8411C161.285 13.8605 161.303 13.88 161.34 13.88C161.377 13.88 161.414 13.8411 161.414 13.8023C161.414 13.7829 161.414 13.7829 161.414 13.7829Z" fill="#5FAF2D"/>
<defs>
<linearGradient id="paint0_linear_1085_27903" x1="14.9045" y1="12.6749" x2="32.7271" y2="18.1157" gradientUnits="userSpaceOnUse">
<stop stop-color="#00F0FF"/>
<stop offset="1" stop-color="#0184FF"/>
</linearGradient>
<linearGradient id="paint1_linear_1085_27903" x1="7.78546" y1="34.9884" x2="7.78546" y2="13.2171" gradientUnits="userSpaceOnUse">
<stop stop-color="#0184FF"/>
<stop offset="1" stop-color="#2FAAF4"/>
</linearGradient>
<linearGradient id="paint2_linear_1085_27903" x1="40.6229" y1="36.9955" x2="40.6229" y2="12.6011" gradientUnits="userSpaceOnUse">
<stop offset="0.17" stop-color="#0184FF"/>
<stop offset="0.91" stop-color="#04BBE4"/>
</linearGradient>
</defs>
</svg>
