<svg xmlns="http://www.w3.org/2000/svg" xmlns:xlink="http://www.w3.org/1999/xlink"><defs>
<clipPath id="clip0_4534_26041">
<rect width="30" height="30" fill="white"/>
</clipPath>
</defs><symbol id="citylink" viewBox="0 0 104 24"><g fill="none">
<path d="M31.6323 10.8032C31.5029 10.5576 30.9035 9.54659 29.299 9.54659C27.8246 9.54659 26.7711 10.7424 26.7711 12.2295C26.7711 13.7167 27.8239 14.9125 29.3149 14.9125C30.9353 14.9125 31.5347 13.9158 31.6641 13.6559H33.1225C33.0416 14.1922 32.1833 16.2006 29.3149 16.2006C27.0299 16.2006 25.2476 14.4686 25.2476 12.2303C25.2476 9.99196 27.014 8.25989 29.299 8.25989C32.1992 8.25989 32.9931 10.2376 33.1225 10.8047H31.6316L31.6323 10.8032Z" fill="#FF5200"/>
<path d="M34.834 8.44244H36.3091V14.1449L40.9591 8.44244H42.4335V16.0152H40.9591V10.2669L36.3091 16.0152H34.834V8.44244Z" fill="#FF5200"/>
<path d="M47.0064 9.69979H43.7656V8.44244H51.7216V9.69979H48.4815V16.0152H47.0064V9.69979Z" fill="#FF5200"/>
<path d="M53.0532 8.44244H54.5283V14.1449L59.1784 8.44244H60.6527V16.0152H59.1784V10.2669L54.5283 16.0152H53.0532V8.44244Z" fill="#FF5200"/>
<path d="M64.1237 8.44244H70.0869V16.0159H68.6126V9.69979H65.3067L64.9986 12.735C64.7557 15.065 64.1237 16.1226 62.4223 16.1226H61.9849V14.8652H62.1794C63.2813 14.8652 63.5084 14.3597 63.6863 12.6427L64.1237 8.44244Z" fill="#FF5200"/>
<path d="M72.3994 8.44244H73.8737V14.1449L78.5246 8.44244H79.9989V16.0152H78.5246V10.2669L73.8737 16.0152H72.3994V8.44244Z" fill="#FF5200"/>
<path d="M82.311 8.44244H83.7861V11.5393H88.2742V8.44244H89.7486V16.0152H88.2742V12.7959H83.7861V16.0152H82.311V8.44244Z" fill="#FF5200"/>
<path d="M92.0459 8.44244H93.4718V11.7233L97.6852 8.44244H99.7915L95.0597 12.0756L100.002 16.0152H97.9115L93.4718 12.551V16.0152H92.0459V8.44244Z" fill="#FF5200"/>
<path d="M17.0904 18.3777L8.35111 19.9386C6.09117 20.3424 4 18.7027 4 16.5267V7.47327C4 5.29726 6.09117 3.65755 8.35111 4.06139L17.0904 5.62234C18.3884 5.85433 19.3284 6.92694 19.3284 8.17712V15.8236C19.3284 17.0738 18.3884 18.1464 17.0904 18.3784" fill="#FF5200"/>
<path d="M8.75747 15.1732V9.10413C8.75747 8.81843 9.02615 8.60004 9.32434 8.64229L15.7538 9.5452L15.7477 8.19119L9.61422 7.28971C8.4184 7.11285 7.33838 7.98712 7.33838 9.13205V15.1453C7.33838 16.2902 8.4184 17.1645 9.61422 16.9876L15.7538 16.0782L15.7606 14.7235L9.3251 15.6343C9.0269 15.6766 8.75822 15.4582 8.75822 15.1725" fill="white"/>
</g></symbol><symbol id="icon-close" viewBox="0 0 30 30"><g fill="none">
<path d="M28 2.08621L2.08966 27M28 27L2 2" stroke="currentColor" stroke-width="3" stroke-linecap="round"/>
</g></symbol><symbol id="info" viewBox="0 0 24 24"><g fill="none">
<path d="M10.9156 7.804V5.815H13.0846V7.804H10.9156ZM10.9156 19V9.28H13.0846V19H10.9156Z" fill="white"/>
<circle cx="12" cy="12" r="11" stroke="white" stroke-width="2"/>
</g></symbol><symbol id="search" viewBox="0 0 30 30"><g fill="none">
<g clip-path="url(#clip0_4534_26041)">
<path fill-rule="evenodd" clip-rule="evenodd" d="M13.9476 3.64769C12.5984 3.64769 11.2624 3.91344 10.0158 4.42977C8.76931 4.9461 7.6367 5.70289 6.68265 6.65693C5.72861 7.61098 4.97181 8.74359 4.45549 9.99011C3.93916 11.2366 3.67341 12.5726 3.67341 13.9219C3.67341 15.2711 3.93916 16.6071 4.45549 17.8536C4.97181 19.1002 5.72861 20.2328 6.68265 21.1868C7.6367 22.1409 8.76931 22.8977 10.0158 23.414C11.2624 23.9303 12.5984 24.1961 13.9476 24.1961C16.6154 24.1124 19.146 22.9938 21.0035 21.0771C22.8611 19.1604 23.8998 16.5961 23.8998 13.9269C23.8998 11.2578 22.8611 8.69342 21.0035 6.77672C19.146 4.86001 16.6154 3.74143 13.9476 3.65779V3.64769ZM0.736492 13.9421C0.687695 12.1771 0.993184 10.4203 1.63491 8.77537C2.27663 7.13048 3.24156 5.63091 4.47268 4.36528C5.7038 3.09965 7.17613 2.09364 8.80266 1.40671C10.4292 0.71977 12.1769 0.365845 13.9425 0.365845C15.7082 0.365845 17.4559 0.71977 19.0824 1.40671C20.709 2.09364 22.1813 3.09965 23.4124 4.36528C24.6435 5.63091 25.6085 7.13048 26.2502 8.77537C26.8919 10.4203 27.1974 12.1771 27.1486 13.9421C27.0535 17.3813 25.6205 20.6478 23.1542 23.0468C20.688 25.4458 17.3831 26.788 13.9425 26.788C10.502 26.788 7.19712 25.4458 4.73088 23.0468C2.26463 20.6478 0.831579 17.3813 0.736492 13.9421Z" fill="currentColor"/>
<path fill-rule="evenodd" clip-rule="evenodd" d="M21.1536 21.1381C21.428 20.8638 21.8001 20.7098 22.1881 20.7098C22.5761 20.7098 22.9482 20.8638 23.2226 21.1381L29.5809 27.4964C29.8443 27.7729 29.9891 28.1415 29.9845 28.5235C29.9798 28.9054 29.826 29.2703 29.556 29.5404C29.2859 29.8105 28.9209 29.9643 28.539 29.9689C28.1571 29.9736 27.7885 29.8287 27.5119 29.5653L21.1536 23.207C20.8794 22.9326 20.7253 22.5605 20.7253 22.1726C20.7253 21.7846 20.8794 21.4125 21.1536 21.1381Z" fill="currentColor"/>
</g>

</g></symbol><symbol id="select-arrow" viewBox="0 0 11 11"><g fill="none">
<path d="M1.5 4.5L5.35333 8.35333M5.35333 8.35333L9.20667 4.5M5.35333 8.35333L5.34 8.36667" stroke="white" stroke-width="2" stroke-linecap="round"/>
</g></symbol><symbol id="x5" viewBox="0 0 28 24"><g fill="none">
<path d="M16.592 18.9583L15.1075 16.3561L13.6538 18.9583H11.9141L14.1502 15.0364L11.8691 11.3939H13.6893L15.1477 13.8263L16.54 11.3939H18.2821L16.0389 15.1561L18.3435 18.9583H16.592Z" fill="black"/>
<path d="M24 16.3886C24 18.0526 22.8181 19.088 21.2556 19.088C19.8847 19.088 18.7288 18.2896 18.6177 16.5507H20.1021C20.2038 17.2992 20.7782 17.631 21.4022 17.631C22.1799 17.631 22.5155 17.0796 22.5155 16.3661C22.5155 15.6526 21.9931 15.1561 21.2675 15.1561C21.036 15.1435 20.8053 15.1945 20.5981 15.3043C20.3909 15.4141 20.2143 15.5788 20.0856 15.7823H18.6673L19.159 11.3939H23.818L23.662 12.8634H20.3243L20.192 14.3153C20.192 14.3153 20.5418 13.8812 21.6102 13.8812C22.8843 13.8812 24 14.7869 24 16.3886Z" fill="black"/>
<path d="M18.7925 10.4532C18.003 7.20986 15.4832 4.91211 10.2829 4.91211H4L4.85333 11.002C5.49391 16.4907 7.48658 18.267 11.011 18.9181C11.0273 18.9229 11.0446 18.9233 11.0611 18.9193C11.0777 18.9152 11.093 18.9069 11.1057 18.895C11.1184 18.8831 11.1281 18.868 11.1338 18.8511C11.1396 18.8343 11.1412 18.8161 11.1386 18.7984C11.1392 18.7749 11.133 18.7518 11.1207 18.7321C11.1085 18.7125 11.0908 18.6973 11.0701 18.6886C8.68739 17.6308 8.41554 14.158 7.90734 10.6752L7.51258 7.89844H11.1008C14.4101 7.89844 16.9653 7.84355 18.5822 10.5405C18.5935 10.5597 18.6091 10.5757 18.6276 10.587C18.6462 10.5983 18.6671 10.6046 18.6885 10.6053C18.7032 10.6054 18.7178 10.6022 18.7313 10.5961C18.7448 10.5901 18.757 10.5812 18.7671 10.57C18.7773 10.5588 18.7852 10.5455 18.7904 10.531C18.7956 10.5165 18.7979 10.5011 18.7973 10.4856C18.797 10.4746 18.7954 10.4637 18.7925 10.4532Z" fill="#5FAF2D"/>
</g></symbol></svg>